<svg width="80" height="100" viewBox="0 0 320 320" fill="none" xmlns="http://www.w3.org/2000/svg">
<path d="M177.778 254.445C177.778 254.445 272.542 230.222 296.498 139.733C300.018 126.445 283.004 115.556 262.116 115.556H53.3244C42.88 115.556 20.08 119.938 26.0178 141.28C50.7644 230.222 142.222 254.445 142.222 254.445V264.871C142.222 264.871 101.031 286.587 92.5511 291.627C83.4222 296.853 90.1689 305.191 93.8311 306.64C99.9111 309.031 115.076 316.862 157.084 316.862C200.169 316.862 223.724 308.382 228.933 306.64C230.942 305.973 239.573 297.991 227.173 290.649C205.093 277.582 177.778 264.871 177.778 264.871V254.445Z" fill="#55ACEE"/>
<path d="M295.92 135.538C295.92 150.578 235.164 162.773 160.196 162.773C85.2444 162.773 24.48 150.587 24.48 135.538C24.48 120.489 85.2444 108.302 160.196 108.302C235.164 108.302 295.92 120.489 295.92 135.538Z" fill="#3B88C3"/>
<path d="M230.951 61.4046C230.951 75.7424 203.102 103.582 161.333 103.582C122.889 103.582 91.7246 85.0224 91.7246 61.4046C91.7246 22.9601 122.88 1.07568 161.333 1.07568C199.796 1.08457 230.951 22.9601 230.951 61.4046Z" fill="#F4ABBA"/>
<path d="M295.92 126.374C295.92 140.711 268.08 163.911 226.32 163.911C187.867 163.911 156.702 176.294 156.702 126.374C156.702 107.912 164.036 90.2068 177.09 77.1526C190.144 64.0984 207.85 56.7646 226.311 56.7646C244.772 56.7646 262.478 64.0984 275.532 77.1526C288.586 90.2068 295.92 107.912 295.92 126.374Z" fill="#FFE8B6"/>
<path d="M170.218 131.609C170.218 177.671 142.378 169.929 100.609 169.929C62.1644 169.929 31 155.236 31 131.609C31 113.147 38.3338 95.4422 51.388 82.388C64.4422 69.3338 82.1475 62 100.609 62C119.07 62 136.776 69.3338 149.83 82.388C162.884 95.4422 170.218 113.147 170.218 131.609Z" fill="#8A4B38"/>
<path d="M274.107 187.538C281.869 176.602 288.096 164.654 292.613 152.027C172.747 194.089 60.8801 164.249 30.5957 155.014C34.7186 165.807 40.0788 176.086 46.569 185.645C147.458 214.542 238.133 196.347 274.107 187.538Z" fill="#3B88C3"/>
<path d="M25.218 134.907C37.6269 140.24 162.889 179.76 296.311 135.68C296.311 141.475 292.658 157.698 290.507 163.902C287.031 173.964 153.609 206.835 33.7247 166.222C30.2402 164.684 19.8047 132.587 25.218 134.907Z" fill="#55ACEE"/>
</svg>
